# Blender v2.79 (sub 0) OBJ File: 'BBThings.blend'
# www.blender.org
mtllib tree.mtl
o Cylinder.001
v 0.000000 -0.834903 -0.367051
v 0.000000 0.834903 -0.367051
v 0.071608 -0.834903 -0.359998
v 0.071608 0.834903 -0.359998
v 0.140464 -0.834903 -0.339111
v 0.140464 0.834903 -0.339111
v 0.203923 -0.834903 -0.305192
v 0.203923 0.834903 -0.305192
v 0.259544 -0.834903 -0.259544
v 0.259544 0.834903 -0.259544
v 0.305192 -0.834903 -0.203923
v 0.305192 0.834903 -0.203923
v 0.339111 -0.834903 -0.140464
v 0.339111 0.834903 -0.140464
v 0.359998 -0.834903 -0.071608
v 0.359998 0.834903 -0.071608
v 0.367051 -0.834903 -0.000000
v 0.367051 0.834903 -0.000000
v 0.359998 -0.834903 0.071608
v 0.359998 0.834903 0.071608
v 0.339111 -0.834903 0.140464
v 0.339111 0.834903 0.140464
v 0.305192 -0.834903 0.203923
v 0.305192 0.834903 0.203923
v 0.259544 -0.834903 0.259544
v 0.259544 0.834903 0.259544
v 0.203923 -0.834903 0.305192
v 0.203923 0.834903 0.305192
v 0.140464 -0.834903 0.339111
v 0.140464 0.834903 0.339111
v 0.071608 -0.834903 0.359998
v 0.071608 0.834903 0.359998
v -0.000000 -0.834903 0.367051
v -0.000000 0.834903 0.367051
v -0.071608 -0.834903 0.359998
v -0.071608 0.834903 0.359998
v -0.140464 -0.834903 0.339111
v -0.140464 0.834903 0.339111
v -0.203923 -0.834903 0.305192
v -0.203923 0.834903 0.305192
v -0.259544 -0.834903 0.259544
v -0.259544 0.834903 0.259544
v -0.305192 -0.834903 0.203922
v -0.305192 0.834903 0.203922
v -0.339111 -0.834903 0.140464
v -0.339111 0.834903 0.140464
v -0.359998 -0.834903 0.071608
v -0.359998 0.834903 0.071608
v -0.367051 -0.834903 -0.000000
v -0.367051 0.834903 -0.000000
v -0.359998 -0.834903 -0.071608
v -0.359998 0.834903 -0.071608
v -0.339111 -0.834903 -0.140465
v -0.339111 0.834903 -0.140465
v -0.305191 -0.834903 -0.203923
v -0.305191 0.834903 -0.203923
v -0.259544 -0.834903 -0.259545
v -0.259544 0.834903 -0.259545
v -0.203922 -0.834903 -0.305192
v -0.203922 0.834903 -0.305192
v -0.140464 -0.834903 -0.339111
v -0.140464 0.834903 -0.339111
v -0.071608 -0.834903 -0.359998
v -0.071608 0.834903 -0.359998
v -0.004561 1.036937 -1.375527
v 0.261769 1.036937 -1.349296
v 0.517864 1.036937 -1.271610
v 0.753883 1.036937 -1.145456
v 0.960754 1.036937 -0.975681
v 1.130530 1.036937 -0.768809
v 1.256684 1.036937 -0.532790
v 1.334370 1.036937 -0.276695
v 1.360601 1.036937 -0.010365
v 1.334370 1.036937 0.255964
v 1.256684 1.036937 0.512059
v 1.130530 1.036937 0.748078
v 0.960754 1.036937 0.954950
v 0.753883 1.036937 1.124725
v 0.517864 1.036937 1.250880
v 0.261769 1.036937 1.328565
v -0.004561 1.036937 1.354797
v -0.270891 1.036937 1.328565
v -0.526986 1.036937 1.250880
v -0.763005 1.036937 1.124725
v -0.969877 1.036937 0.954949
v -1.139652 1.036937 0.748077
v -1.265807 1.036937 0.512059
v -0.004561 3.432120 -0.010365
v -1.343492 1.036937 0.255963
v -1.369723 1.036937 -0.010367
v -1.343491 1.036937 -0.276697
v -1.265805 1.036937 -0.532792
v -1.139651 1.036937 -0.768810
v -0.969875 1.036937 -0.975682
v -0.763003 1.036937 -1.145457
v -0.526984 1.036937 -1.271611
v -0.270889 1.036937 -1.349296
v 0.001578 -0.168249 -1.722717
v 0.337663 -0.168249 -1.689615
v 0.660833 -0.168249 -1.591583
v 0.958668 -0.168249 -1.432387
v 1.219723 -0.168249 -1.218145
v 1.433965 -0.168249 -0.957090
v 1.593161 -0.168249 -0.659255
v 1.691193 -0.168249 -0.336085
v 1.724295 -0.168249 -0.000000
v 1.691193 -0.168249 0.336085
v 1.593161 -0.168249 0.659255
v 1.433965 -0.168249 0.957090
v 1.219723 -0.168249 1.218145
v 0.958668 -0.168249 1.432387
v 0.660833 -0.168249 1.591583
v 0.337663 -0.168249 1.689615
v 0.001577 -0.168249 1.722717
v -0.334508 -0.168249 1.689615
v -0.657678 -0.168249 1.591583
v -0.955513 -0.168249 1.432386
v -1.216568 -0.168249 1.218144
v -1.430809 -0.168249 0.957089
v -1.590006 -0.168249 0.659254
v 0.001578 3.277185 0.000000
v -1.688038 -0.168249 0.336084
v -1.721139 -0.168249 -0.000002
v -1.688037 -0.168249 -0.336087
v -1.590004 -0.168249 -0.659257
v -1.430808 -0.168249 -0.957092
v -1.216565 -0.168249 -1.218146
v -0.955510 -0.168249 -1.432388
v -0.657675 -0.168249 -1.591584
v -0.334505 -0.168249 -1.689616
vn 0.0000 -1.0000 -0.0000
vn 0.0000 -0.6857 -0.7279
vn 0.0000 0.6857 -0.7279
vn 0.1420 0.6857 -0.7139
vn 0.1420 -0.6857 -0.7139
vn 0.2785 0.6857 -0.6725
vn 0.2785 -0.6857 -0.6725
vn 0.4044 0.6857 -0.6052
vn 0.4044 -0.6857 -0.6052
vn 0.5147 0.6857 -0.5147
vn 0.5147 -0.6857 -0.5147
vn 0.6052 0.6857 -0.4044
vn 0.6052 -0.6857 -0.4044
vn 0.6725 0.6857 -0.2785
vn 0.6725 -0.6857 -0.2785
vn 0.7139 0.6857 -0.1420
vn 0.7139 -0.6857 -0.1420
vn 0.7279 0.6857 0.0000
vn 0.7279 -0.6857 0.0000
vn 0.7139 0.6857 0.1420
vn 0.7139 -0.6857 0.1420
vn 0.6725 0.6857 0.2785
vn 0.6725 -0.6857 0.2785
vn 0.6052 0.6857 0.4044
vn 0.6052 -0.6857 0.4044
vn 0.5147 0.6857 0.5147
vn 0.5147 -0.6857 0.5147
vn 0.4044 0.6857 0.6052
vn 0.4044 -0.6857 0.6052
vn 0.2785 0.6857 0.6725
vn 0.2785 -0.6857 0.6725
vn 0.1420 0.6857 0.7139
vn 0.1420 -0.6857 0.7139
vn 0.0000 0.6857 0.7279
vn 0.0000 -0.6857 0.7279
vn -0.1420 0.6857 0.7139
vn -0.1420 -0.6857 0.7139
vn -0.2785 0.6857 0.6725
vn -0.2785 -0.6857 0.6725
vn -0.4044 0.6857 0.6052
vn -0.4044 -0.6857 0.6052
vn -0.5147 0.6857 0.5147
vn -0.5147 -0.6857 0.5147
vn -0.6052 0.6857 0.4044
vn -0.6052 -0.6857 0.4044
vn -0.6725 0.6857 0.2785
vn -0.6725 -0.6857 0.2785
vn -0.7139 0.6857 0.1420
vn -0.7139 -0.6857 0.1420
vn -0.7279 0.6857 0.0000
vn -0.7279 -0.6857 0.0000
vn -0.7139 0.6857 -0.1420
vn -0.7139 -0.6857 -0.1420
vn -0.6725 0.6857 -0.2785
vn -0.6725 -0.6857 -0.2785
vn -0.6052 0.6857 -0.4044
vn -0.6052 -0.6857 -0.4044
vn -0.5147 0.6857 -0.5147
vn -0.5147 -0.6857 -0.5147
vn -0.4044 0.6857 -0.6052
vn -0.4044 -0.6857 -0.6052
vn -0.2785 0.6857 -0.6725
vn -0.2785 -0.6857 -0.6725
vn -0.1420 0.6857 -0.7139
vn -0.1420 -0.6857 -0.7139
vn 0.0000 -0.4803 -0.8771
vn 0.0000 1.0000 0.0000
vn 0.1711 -0.4803 -0.8602
vn 0.3356 -0.4803 -0.8103
vn 0.4873 -0.4803 -0.7293
vn 0.6202 -0.4803 -0.6202
vn 0.7293 -0.4803 -0.4873
vn 0.8103 -0.4803 -0.3356
vn 0.8602 -0.4803 -0.1711
vn 0.8771 -0.4803 0.0000
vn 0.8602 -0.4803 0.1711
vn 0.8103 -0.4803 0.3356
vn 0.7293 -0.4803 0.4873
vn 0.6202 -0.4803 0.6202
vn 0.4873 -0.4803 0.7293
vn 0.3356 -0.4803 0.8103
vn 0.1711 -0.4803 0.8602
vn 0.0000 -0.4803 0.8771
vn -0.1711 -0.4803 0.8602
vn -0.3356 -0.4803 0.8103
vn -0.4873 -0.4803 0.7293
vn -0.6202 -0.4803 0.6202
vn -0.7293 -0.4803 0.4873
vn -0.8103 -0.4803 0.3356
vn -0.8602 -0.4803 0.1711
vn -0.8771 -0.4803 0.0000
vn -0.8602 -0.4803 -0.1711
vn -0.8103 -0.4803 -0.3356
vn -0.7293 -0.4803 -0.4873
vn -0.6202 -0.4803 -0.6202
vn -0.4873 -0.4803 -0.7293
vn -0.3356 -0.4803 -0.8103
vn -0.1711 -0.4803 -0.8602
vn 0.0000 -0.5033 -0.8641
vn 0.1686 -0.5033 -0.8475
vn 0.3307 -0.5033 -0.7983
vn 0.4801 -0.5033 -0.7185
vn 0.6110 -0.5033 -0.6110
vn 0.7185 -0.5033 -0.4801
vn 0.7983 -0.5033 -0.3307
vn 0.8475 -0.5033 -0.1686
vn 0.8641 -0.5033 0.0000
vn 0.8475 -0.5033 0.1686
vn 0.7983 -0.5033 0.3307
vn 0.7185 -0.5033 0.4801
vn 0.6110 -0.5033 0.6110
vn 0.4801 -0.5033 0.7185
vn 0.3307 -0.5033 0.7983
vn 0.1686 -0.5033 0.8475
vn 0.0000 -0.5033 0.8641
vn -0.1686 -0.5033 0.8475
vn -0.3307 -0.5033 0.7983
vn -0.4801 -0.5033 0.7185
vn -0.6110 -0.5033 0.6110
vn -0.7185 -0.5033 0.4801
vn -0.7983 -0.5033 0.3307
vn -0.8475 -0.5033 0.1686
vn -0.8641 -0.5033 0.0000
vn -0.8475 -0.5033 -0.1686
vn -0.7983 -0.5033 -0.3307
vn -0.7185 -0.5033 -0.4801
vn -0.6110 -0.5033 -0.6110
vn -0.4801 -0.5033 -0.7185
vn -0.3307 -0.5033 -0.7983
vn -0.1686 -0.5033 -0.8475
usemtl None
s off
f 1//1 3//1 5//1 7//1 9//1 11//1 13//1 15//1 17//1 19//1 21//1 23//1 25//1 27//1 29//1 31//1 33//1 35//1 37//1 39//1 41//1 43//1 45//1 47//1 49//1 51//1 53//1 55//1 57//1 59//1 61//1 63//1
f 65//1 66//1 67//1 68//1 69//1 70//1 71//1 72//1 73//1 74//1 75//1 76//1 77//1 78//1 79//1 80//1 81//1 82//1 83//1 84//1 85//1 86//1 87//1 89//1 90//1 91//1 92//1 93//1 94//1 95//1 96//1 97//1
f 98//1 99//1 100//1 101//1 102//1 103//1 104//1 105//1 106//1 107//1 108//1 109//1 110//1 111//1 112//1 113//1 114//1 115//1 116//1 117//1 118//1 119//1 120//1 122//1 123//1 124//1 125//1 126//1 127//1 128//1 129//1 130//1
s 1
f 1//2 2//3 4//4 3//5
f 3//5 4//4 6//6 5//7
f 5//7 6//6 8//8 7//9
f 7//9 8//8 10//10 9//11
f 9//11 10//10 12//12 11//13
f 11//13 12//12 14//14 13//15
f 13//15 14//14 16//16 15//17
f 15//17 16//16 18//18 17//19
f 17//19 18//18 20//20 19//21
f 19//21 20//20 22//22 21//23
f 21//23 22//22 24//24 23//25
f 23//25 24//24 26//26 25//27
f 25//27 26//26 28//28 27//29
f 27//29 28//28 30//30 29//31
f 29//31 30//30 32//32 31//33
f 31//33 32//32 34//34 33//35
f 33//35 34//34 36//36 35//37
f 35//37 36//36 38//38 37//39
f 37//39 38//38 40//40 39//41
f 39//41 40//40 42//42 41//43
f 41//43 42//42 44//44 43//45
f 43//45 44//44 46//46 45//47
f 45//47 46//46 48//48 47//49
f 47//49 48//48 50//50 49//51
f 49//51 50//50 52//52 51//53
f 51//53 52//52 54//54 53//55
f 53//55 54//54 56//56 55//57
f 55//57 56//56 58//58 57//59
f 57//59 58//58 60//60 59//61
f 59//61 60//60 62//62 61//63
f 4//4 2//3 64//64 62//62 60//60 58//58 56//56 54//54 52//52 50//50 48//48 46//46 44//44 42//42 40//40 38//38 36//36 34//34 32//32 30//30 28//28 26//26 24//24 22//22 20//20 18//18 16//16 14//14 12//12 10//10 8//8 6//6
f 61//63 62//62 64//64 63//65
f 63//65 64//64 2//3 1//2
f 65//66 88//67 66//68
f 66//68 88//67 67//69
f 67//69 88//67 68//70
f 68//70 88//67 69//71
f 69//71 88//67 70//72
f 70//72 88//67 71//73
f 71//73 88//67 72//74
f 72//74 88//67 73//75
f 73//75 88//67 74//76
f 74//76 88//67 75//77
f 75//77 88//67 76//78
f 76//78 88//67 77//79
f 77//79 88//67 78//80
f 78//80 88//67 79//81
f 79//81 88//67 80//82
f 80//82 88//67 81//83
f 81//83 88//67 82//84
f 82//84 88//67 83//85
f 83//85 88//67 84//86
f 84//86 88//67 85//87
f 85//87 88//67 86//88
f 86//88 88//67 87//89
f 87//89 88//67 89//90
f 89//90 88//67 90//91
f 90//91 88//67 91//92
f 91//92 88//67 92//93
f 92//93 88//67 93//94
f 93//94 88//67 94//95
f 94//95 88//67 95//96
f 95//96 88//67 96//97
f 96//97 88//67 97//98
f 97//98 88//67 65//66
f 98//99 121//67 99//100
f 99//100 121//67 100//101
f 100//101 121//67 101//102
f 101//102 121//67 102//103
f 102//103 121//67 103//104
f 103//104 121//67 104//105
f 104//105 121//67 105//106
f 105//106 121//67 106//107
f 106//107 121//67 107//108
f 107//108 121//67 108//109
f 108//109 121//67 109//110
f 109//110 121//67 110//111
f 110//111 121//67 111//112
f 111//112 121//67 112//113
f 112//113 121//67 113//114
f 113//114 121//67 114//115
f 114//115 121//67 115//116
f 115//116 121//67 116//117
f 116//117 121//67 117//118
f 117//118 121//67 118//119
f 118//119 121//67 119//120
f 119//120 121//67 120//121
f 120//121 121//67 122//122
f 122//122 121//67 123//123
f 123//123 121//67 124//124
f 124//124 121//67 125//125
f 125//125 121//67 126//126
f 126//126 121//67 127//127
f 127//127 121//67 128//128
f 128//128 121//67 129//129
f 129//129 121//67 130//130
f 130//130 121//67 98//99
