# Blender v2.79 (sub 0) OBJ File: ''
# www.blender.org
mtllib bed.mtl
o Cube_Cube.002
v 6.803024 1.240595 -3.993512
v 6.803024 1.240596 3.993511
v -6.803025 1.240596 3.993511
v -6.803021 1.240595 -3.993513
v 6.803027 3.897861 -3.993510
v 6.803020 3.897863 3.993513
v -6.803026 3.897863 3.993510
v -6.803023 3.897861 -3.993512
vn -0.0000 -1.0000 0.0000
vn 0.0000 1.0000 -0.0000
vn 1.0000 0.0000 0.0000
vn -0.0000 -0.0000 1.0000
vn -1.0000 -0.0000 -0.0000
vn 0.0000 0.0000 -1.0000
usemtl Material.001
s 1
f 1//1 2//1 3//1 4//1
f 5//2 8//2 7//2 6//2
f 1//3 5//3 6//3 2//3
f 2//4 6//4 7//4 3//4
f 3//5 7//5 8//5 4//5
f 5//6 1//6 4//6 8//6
o Cube.001
v 6.815152 0.971497 4.031787
v 6.815152 4.800999 4.031786
v 6.815152 0.971495 -4.031787
v 6.815152 4.800998 -4.031788
v 7.276935 0.971497 4.031787
v 7.276935 4.800999 4.031786
v 7.276935 0.971495 -4.031787
v 7.276935 4.800998 -4.031788
v 6.815152 4.800998 -4.360194
v 6.815152 0.971495 -4.360193
v 7.276935 0.971495 -4.360193
v 7.276935 4.800998 -4.360194
v 6.815152 0.971497 4.369797
v 6.815152 4.800999 4.369796
v 7.276935 4.800999 4.369796
v 7.276935 0.971497 4.369797
v 6.815152 5.187517 -4.031788
v 7.276935 5.187517 -4.031788
v 7.276935 5.187518 4.031786
v 6.815152 5.187518 4.031786
v 6.815152 5.187517 -4.360194
v 7.276935 5.187517 -4.360194
v 7.276935 5.187518 4.369796
v 6.815152 5.187518 4.369796
v 7.276935 0.037427 -4.031787
v 6.815152 0.037427 -4.031787
v 6.815152 0.037429 4.031787
v 7.276935 0.037429 4.031787
v 7.276935 0.037427 -4.360193
v 6.815152 0.037427 -4.360193
v 6.815152 0.037429 4.369797
v 7.276935 0.037429 4.369797
vn -1.0000 0.0000 0.0000
vn 1.0000 0.0000 0.0000
vn 0.0000 0.0000 1.0000
vn 0.0000 -1.0000 0.0000
vn 0.0000 1.0000 -0.0000
vn 0.0000 -0.0000 -1.0000
usemtl None
s 1
f 9//7 10//7 12//7 11//7
f 16//8 15//8 19//8 20//8
f 15//8 16//8 14//8 13//8
f 15//9 11//9 34//9 33//9
f 11//10 15//10 13//10 9//10
f 16//11 12//11 10//11 14//11
f 18//12 17//12 20//12 19//12
f 9//12 13//12 36//12 35//12
f 16//8 20//8 30//8 26//8
f 11//7 12//7 17//7 18//7
f 24//9 23//9 22//9 21//9
f 17//7 12//7 25//7 29//7
f 13//8 14//8 23//8 24//8
f 10//7 9//7 21//7 22//7
f 25//11 26//11 30//11 29//11
f 27//11 28//11 32//11 31//11
f 10//7 22//7 32//7 28//7
f 14//12 10//12 28//12 27//12
f 23//8 14//8 27//8 31//8
f 12//9 16//9 26//9 25//9
f 20//12 17//12 29//12 30//12
f 22//9 23//9 31//9 32//9
f 35//10 36//10 40//10 39//10
f 33//10 34//10 38//10 37//10
f 13//8 24//8 40//8 36//8
f 18//12 19//12 37//12 38//12
f 24//9 21//9 39//9 40//9
f 11//7 18//7 38//7 34//7
f 19//8 15//8 33//8 37//8
f 21//7 9//7 35//7 39//7
o Cube.002_Cube.003
v -7.334618 0.990427 4.049940
v -7.334618 6.953356 4.049939
v -7.334618 0.990426 -4.013634
v -7.334618 6.953355 -4.013635
v -6.872835 0.990427 4.049940
v -6.872835 6.953356 4.049939
v -6.872835 0.990426 -4.013634
v -6.872835 6.953355 -4.013635
v -7.334618 6.953355 -4.342041
v -7.334618 0.990426 -4.342040
v -6.872835 0.990426 -4.342040
v -6.872835 6.953355 -4.342041
v -7.334618 0.990427 4.387950
v -7.334618 6.953356 4.387949
v -6.872835 6.953356 4.387949
v -6.872835 0.990427 4.387950
v -7.334618 7.339875 -4.013636
v -6.872835 7.339875 -4.013636
v -6.872835 7.339876 4.049938
v -7.334618 7.339876 4.049938
v -7.334618 7.339875 -4.342041
v -6.872835 7.339875 -4.342041
v -6.872835 7.339876 4.387949
v -7.334618 7.339876 4.387949
v -6.872835 0.056357 -4.013634
v -7.334618 0.056357 -4.013634
v -7.334618 0.056359 4.049940
v -6.872835 0.056359 4.049940
v -6.872835 0.056357 -4.342040
v -7.334618 0.056357 -4.342040
v -7.334618 0.056359 4.387950
v -6.872835 0.056359 4.387950
v -7.334618 4.016718 4.049939
v -7.334618 4.016717 -4.013635
v -6.872835 4.016717 -4.013635
v -6.872835 4.016718 4.049939
v -7.334618 4.016717 -4.342041
v -6.872835 4.016717 -4.342041
v -7.334618 4.016718 4.387949
v -6.872835 4.016718 4.387949
vn -1.0000 0.0000 0.0000
vn 1.0000 0.0000 0.0000
vn 0.0000 0.0000 1.0000
vn 0.0000 -1.0000 0.0000
vn 0.0000 1.0000 -0.0000
vn 0.0000 -0.0000 -1.0000
usemtl None
s 1
f 73//13 42//13 44//13 74//13
f 75//14 47//14 51//14 78//14
f 75//14 48//14 46//14 76//14
f 47//15 43//15 66//15 65//15
f 43//16 47//16 45//16 41//16
f 48//17 44//17 42//17 46//17
f 77//18 49//18 52//18 78//18
f 41//18 45//18 68//18 67//18
f 48//14 52//14 62//14 58//14
f 74//13 44//13 49//13 77//13
f 80//15 55//15 54//15 79//15
f 49//13 44//13 57//13 61//13
f 76//14 46//14 55//14 80//14
f 73//13 41//13 53//13 79//13
f 57//17 58//17 62//17 61//17
f 59//17 60//17 64//17 63//17
f 42//13 54//13 64//13 60//13
f 46//18 42//18 60//18 59//18
f 55//14 46//14 59//14 63//14
f 44//15 48//15 58//15 57//15
f 52//18 49//18 61//18 62//18
f 54//15 55//15 63//15 64//15
f 67//16 68//16 72//16 71//16
f 65//16 66//16 70//16 69//16
f 45//14 56//14 72//14 68//14
f 50//18 51//18 69//18 70//18
f 56//15 53//15 71//15 72//15
f 43//13 50//13 70//13 66//13
f 51//14 47//14 65//14 69//14
f 53//13 41//13 67//13 71//13
f 42//13 73//13 79//13 54//13
f 45//14 76//14 80//14 56//14
f 56//15 80//15 79//15 53//15
f 43//13 74//13 77//13 50//13
f 50//18 77//18 78//18 51//18
f 47//14 75//14 76//14 45//14
f 48//14 75//14 78//14 52//14
f 41//13 73//13 74//13 43//13
