# Blender v2.79 (sub 0) OBJ File: ''
# www.blender.org
mtllib chest.mtl
o Cube_Cube.005
v 2.411994 0.043353 -4.258501
v 2.411994 0.043355 4.258501
v -2.411994 0.043355 4.258500
v -2.411993 0.043353 -4.258502
v 2.411995 3.830885 -4.258499
v 2.411992 3.830886 4.193810
v -2.411994 3.830886 4.193807
v -2.411993 3.830885 -4.258502
v 1.924438 5.576057 -4.259833
v 1.117898 6.409067 -4.258707
v 1.117896 6.409068 4.196512
v 1.924436 5.576058 4.194139
v -1.924437 5.576057 -4.259835
v -1.117898 6.409067 -4.258708
v -1.117898 6.409068 4.196511
v -1.924438 5.576058 4.194136
v 2.218226 5.053565 4.187693
v 2.218229 5.053564 -4.261510
v -2.218228 5.053564 -4.261512
v -2.218229 5.053565 4.187689
v 2.411995 3.672033 -4.258499
v 2.411992 3.672035 4.195480
v -2.411994 3.672035 4.195476
v -2.411993 3.672033 -4.258502
v 2.382565 3.770020 -4.206929
v 2.382562 3.770021 4.143142
v -2.382565 3.770021 4.143138
v -2.382564 3.770020 -4.206932
v -0.018049 0.043353 -4.258502
v -0.018050 0.043355 4.258501
v -0.018049 3.830885 -4.258501
v -0.018051 3.830886 4.193809
v -0.014401 5.576057 -4.259834
v -0.008365 6.723003 -4.258707
v -0.008366 6.723004 4.196511
v -0.014402 5.576058 4.194137
v -0.016601 5.053565 4.187691
v -0.016599 5.053564 -4.261511
v -0.018049 3.672033 -4.258501
v -0.018051 3.672035 4.195478
v -0.017829 3.770020 -4.206931
v -0.017830 3.770021 4.143140
vn -0.0000 -1.0000 0.0000
vn -0.7011 0.2436 -0.6701
vn -0.7033 0.2438 0.6678
vn -0.5889 0.4331 0.6823
vn -0.5880 0.4402 -0.6786
vn 0.9003 -0.4353 0.0000
vn -0.0000 -0.6398 0.7685
vn -0.9003 -0.4353 -0.0000
vn 0.0000 0.0000 -1.0000
vn 0.0000 0.0004 -1.0000
vn 0.0000 0.0026 -1.0000
vn -0.0001 0.0016 -1.0000
vn -0.0000 0.0022 -1.0000
vn -0.0014 0.7594 -0.6506
vn -0.3885 0.6506 -0.6526
vn -0.3886 0.6491 0.6540
vn -0.0016 0.7584 0.6518
vn -0.0000 -0.0123 0.9999
vn -0.0002 -0.0042 1.0000
vn 0.0000 -0.0074 1.0000
vn 0.3873 0.6516 -0.6522
vn 0.3874 0.6501 0.6536
vn 0.5889 0.4331 0.6823
vn 0.5880 0.4401 -0.6786
vn -0.0001 0.0012 -1.0000
vn 0.0000 0.0012 -1.0000
vn -0.0000 -0.0025 1.0000
vn 0.0003 -0.0025 1.0000
vn 0.0002 -0.0042 1.0000
vn 0.7033 0.2438 0.6678
vn 0.7012 0.2436 -0.6701
vn 0.6862 -0.2676 0.6764
vn 0.6860 -0.2720 -0.6748
vn -0.0000 0.0050 1.0000
vn 0.0000 -0.0025 -1.0000
vn -0.6860 -0.2720 -0.6748
vn -0.6862 -0.2676 0.6764
vn 0.0000 0.4657 -0.8849
vn -1.0000 -0.0000 -0.0000
vn -0.0000 0.0174 0.9998
vn 1.0000 0.0000 0.0000
vn 0.0000 -0.6464 -0.7630
vn -0.9577 0.2877 -0.0000
vn -0.0000 0.4711 0.8821
vn 0.9577 0.2877 0.0000
vn -0.0003 -0.0025 1.0000
vn 0.0001 0.0017 -1.0000
vn 0.0001 0.0012 -1.0000
usemtl Material.003
s 1
f 29//1 30//1 3//1 4//1
f 19//2 20//3 16//4 13//5
f 25//6 5//6 6//6 26//6
f 42//7 32//7 7//7 27//7
f 27//8 7//8 8//8 28//8
f 39//9 29//9 4//9 24//9
f 38//10 19//11 13//12 33//13
f 34//14 14//15 15//16 35//17
f 37//18 17//18 12//19 36//20
f 10//21 11//22 12//23 9//24
f 33//13 13//12 14//25 34//26
f 35//27 15//28 16//29 36//20
f 15//16 14//15 13//5 16//4
f 17//30 18//31 9//24 12//23
f 6//32 5//33 18//31 17//30
f 32//34 6//34 17//34 37//34
f 31//35 8//35 19//11 38//10
f 8//36 7//37 20//3 19//2
f 41//38 39//38 24//38 28//38
f 3//39 23//39 24//39 4//39
f 30//40 40//40 23//40 3//40
f 1//41 21//41 22//41 2//41
f 31//42 41//42 28//42 8//42
f 23//43 27//43 28//43 24//43
f 40//44 42//44 27//44 23//44
f 21//45 25//45 26//45 22//45
f 22//44 26//44 42//44 40//44
f 5//42 25//42 41//42 31//42
f 2//40 22//40 40//40 30//40
f 25//38 21//38 39//38 41//38
f 5//35 31//35 38//10 18//11
f 7//34 32//34 37//34 20//34
f 11//46 35//27 36//20 12//19
f 9//47 33//13 34//26 10//48
f 20//18 37//18 36//20 16//29
f 10//21 34//14 35//17 11//22
f 18//11 38//10 33//13 9//47
f 21//9 1//9 29//9 39//9
f 26//7 6//7 32//7 42//7
f 1//1 2//1 30//1 29//1
